<?xml version="1.0" ?><!DOCTYPE svg  PUBLIC '-//W3C//DTD SVG 1.1//EN'  'http://www.w3.org/Graphics/SVG/1.1/DTD/svg11.dtd'><svg enable-background="new 0 0 128 128" id="Слой_1" version="1.1" viewBox="0 0 128 128" xml:space="preserve" xmlns="http://www.w3.org/2000/svg" xmlns:xlink="http://www.w3.org/1999/xlink"><g><g><g><g><g><path d="M4,64.1C4,30.9,30.9,4,64.1,4c33.2,0,60.1,26.9,60.1,60.1c0,33.2-26.9,60.1-60.1,60.1       C30.9,124.2,4,97.3,4,64.1" fill="#0B85B7"/></g></g></g><g><g><g><path d="M6.7,64.1c0-31.7,25.7-57.4,57.4-57.4c31.7,0,57.4,25.7,57.4,57.4c0,31.7-25.7,57.4-57.4,57.4       C32.4,121.5,6.7,95.8,6.7,64.1" fill="#FFFFFF"/></g></g></g><g><g><g><path d="M9.6,64.1C9.6,34,34,9.6,64.1,9.6c30.1,0,54.5,24.4,54.5,54.5c0,30.1-24.4,54.5-54.5,54.5       C34,118.7,9.6,94.2,9.6,64.1" fill="#F37865"/></g></g></g><g><g><g><path d="M14.8,51l2.3-6.5c0.2-0.6,0.9-1,1.6-0.8l0.2,0.1c0.6,0.2,1,0.9,0.8,1.6l-1.1,3       c-0.2,0.6,0.1,1.4,0.8,1.6l0.3,0.1c0.6,0.2,1.4-0.1,1.6-0.8l1-2.8c0.2-0.6,0.9-1,1.6-0.8l0.2,0.1c0.6,0.2,1,0.9,0.8,1.6l-1,2.8       c-0.2,0.6,0.1,1.4,0.8,1.6l2.4,0.9c0.6,0.2,1,0.9,0.8,1.6l-0.4,1.1c-0.2,0.6-0.9,1-1.6,0.7l-10.3-3.7       C14.9,52.4,14.6,51.7,14.8,51z" fill="#FFFFFF"/></g></g></g><g><g><g><path d="M33.7,34.4c1.9,2.1,2.3,4.2,0.7,6.8c-1.8,2.9-5.1,4.6-9.5,1.9c-4.4-2.8-4.1-6.7-2.4-9.4       c1.4-2.1,3.2-2.7,4.7-2.6c0.8,0.1,1.3,0.9,1,1.7l-0.3,0.8c-0.2,0.5-0.8,0.8-1.3,0.8c-0.6-0.1-1.3,0.1-1.9,1       c-0.5,0.8-0.8,2.5,2.2,4.4c1.9,1.2,4,2,5.1,0.2c0.6-0.9,0.3-1.6-0.1-2.3c-0.3-0.5-0.2-1.1,0.2-1.5L33.7,34.4 M36.6,22.4       c-0.3-0.6-0.1-1.4,0.5-1.7l3.9-2.2c1-0.6,4.1-2.3,5.8,0.6c1.2,2.2-0.1,3.4-0.6,3.9l0,0.1c1-0.4,2.9-0.7,4.1,1.5       c1.8,3.1-1.6,5-2.8,5.7l-3.7,2.1c-0.6,0.3-1.4,0.1-1.7-0.5L36.6,22.4z M43.4,23.2c0.8-0.5,1.1-1.1,0.6-1.9       c-0.5-0.9-1-0.9-1.9-0.4l-0.6,0.3c-0.6,0.3-0.8,1.1-0.5,1.7l0.1,0.1c0.3,0.6,1.1,0.8,1.7,0.5L43.4,23.2z M46.3,28       c0.8-0.5,1.1-1.3,0.7-2c-0.6-1-1.3-1-2.2-0.4l-0.7,0.4c-0.6,0.3-0.8,1.1-0.5,1.7l0.2,0.4c0.3,0.6,1.1,0.8,1.7,0.5L46.3,28        M65.1,26.4l-1.2,0.1c-0.5,0.1-1.1-0.2-1.3-0.7l-0.4-0.9C62,24.4,61.5,24,61,24.1l-3.1,0.4c-0.5,0.1-1,0.5-1.1,1l-0.2,1.1       c-0.1,0.5-0.5,0.9-1.1,1l-1,0.1c-0.9,0.1-1.6-0.7-1.4-1.5l2.7-11.3c0.1-0.5,0.5-0.9,1.1-0.9l2.9-0.3c0.5-0.1,1,0.2,1.3,0.7       l5.1,10.4C66.5,25.4,66,26.3,65.1,26.4z M60.8,21.5l-1.4-3c-0.4-0.8-0.7-1.6-0.8-2.1l-0.1,0c0,0.7-0.2,1.6-0.3,2.2l-0.3,1.6       c-0.2,0.8,0.5,1.6,1.4,1.5L60.8,21.5 M71.3,22.2l-2.7-7.1c-0.3-0.9,0.4-1.8,1.4-1.7l1.3,0.2c0.5,0.1,0.8,0.4,1,0.8l1,3       c0.2,0.7,0.4,1.3,0.4,2l0.1,0c0.2-0.5,0.9-1.5,1.1-1.9l1.8-2.4c0.3-0.4,0.7-0.6,1.2-0.5l1.1,0.2c0.9,0.2,1.4,1.3,0.8,2       l-4.6,5.6c-0.1,0.2-0.2,0.4-0.3,0.6l-0.5,3.4c-0.1,0.7-0.7,1.1-1.4,1l-1.2-0.2c-0.7-0.1-1.1-0.7-1-1.4L71.3,22.2" fill="#FFFFFF"/></g></g></g><g><g><g><path d="M85.5,17.2l6.1,3.2c0.6,0.3,0.8,1.1,0.5,1.7l-0.1,0.2c-0.3,0.6-1.1,0.8-1.7,0.5l-2.9-1.5       c-0.6-0.3-1.4-0.1-1.7,0.5l0,0c-0.3,0.6-0.1,1.4,0.5,1.7l2.6,1.3c0.6,0.3,0.8,1.1,0.5,1.7l-0.1,0.2c-0.3,0.6-1.1,0.8-1.7,0.5       L85,26c-0.6-0.3-1.4-0.1-1.7,0.5l-0.1,0.2c-0.3,0.6-0.1,1.4,0.5,1.7l3,1.6c0.6,0.3,0.8,1.1,0.5,1.7l-0.1,0.2       c-0.3,0.6-1.1,0.8-1.7,0.5l-6.2-3.3c-0.6-0.3-0.8-1.1-0.5-1.7l5.1-9.7C84.1,17.2,84.9,16.9,85.5,17.2z" fill="#FFFFFF"/></g></g></g><g><g><g><path d="M97.5,26c0.5-0.5,1.3-0.4,1.8,0.1l3.3,3.6c0.7,0.7,3,3.3,0.2,5.9c-1,0.9-2.1,1.4-3.3,1.2       c-0.6-0.1-1.1,0.3-1.3,0.8L97,40.7c-0.3,0.9-1.5,1.1-2.1,0.4l-0.8-0.9c-0.3-0.4-0.4-0.9-0.2-1.3l1.6-3.6c0.2-0.5,0.1-1-0.2-1.3       l-0.4-0.4L92,36.1c-0.5,0.5-1.3,0.4-1.8-0.1l-0.8-0.9c-0.5-0.5-0.4-1.3,0.1-1.8L97.5,26z M96.8,31.6l1.3,1.4       c0.3,0.3,1.1,1.2,2.2,0.2c0.6-0.5,0.8-1.3,0-2.1l-0.4-0.5c-0.5-0.5-1.3-0.5-1.8-0.1L96.8,31.6" fill="#FFFFFF"/></g></g></g><g><g><g><path d="M111.1,44c0.1,0.4,0,0.9-0.3,1.3l-4.7,4.6c-0.6,0.6-1.5,1.4-2.4,2l0.1,0.2c0.6-0.3,1.5-0.7,2.7-1       l5.1-1.6c0.7-0.2,1.4,0.1,1.6,0.8l0.3,0.9c0.2,0.7-0.1,1.4-0.8,1.6L102.2,56c-0.7,0.2-1.4-0.1-1.6-0.8l-0.8-2.5       c-0.1-0.4,0-0.9,0.3-1.3l4.9-4.8c0.8-0.8,1.8-1.5,2.2-1.7l0-0.1c-0.7,0.3-1.2,0.5-1.9,0.7l-5.8,1.9c-0.7,0.2-1.4-0.1-1.6-0.8       l-0.3-0.9c-0.2-0.7,0.1-1.4,0.8-1.6l8.7-2.8l1.7-0.5c0.7-0.2,1.4,0.1,1.6,0.8L111.1,44z" fill="#FFFFFF"/></g></g></g><g><g><g><path d="M64.1,30C45.3,30,30,45.3,30,64.1c0,18.8,15.3,34.1,34.1,34.1c18.8,0,34.1-15.3,34.1-34.1       C98.2,45.3,82.9,30,64.1,30" fill="#FFFFFF"/></g></g></g><g><g><g><path d="M72.3,61.8L72.3,61.8l5.4,9.2c0.5,0.8,1.8,0.6,1.9-0.4l1-11.5l-5.4-9.2c-0.5-0.8-1.8-0.6-1.9,0.4       L72.3,61.8 M64.1,64.6l5.4,9.2c0.5,0.8,1.8,0.6,1.9-0.4l1-11.5l-5.4-9.2c-0.5-0.8-1.8-0.6-1.9,0.4L64.1,64.6 M80.6,59.2       l5.4,9.2c0.5,0.8,1.8,0.6,1.9-0.4l1-11.5l-5.4-9.2c-0.5-0.8-1.8-0.6-1.9,0.4L80.6,59.2 M88.8,56.5l6.5,11.2       c0.2-1.3,0.2-2.5,0.2-3.8c0-6.8-2.2-13.1-5.9-18.3L88.8,56.5" fill="#0B85B7"/></g></g></g><g><g><g><path d="M76.1,35l4.1,7c0.5,0.8,1.8,0.6,1.9-0.4l0.3-3.1C80.4,37.1,78.3,36,76.1,35 M51,92.7l-3-5.2       c-0.5-0.8-1.8-0.6-1.9,0.4L46,89.8C47.6,90.9,49.2,91.9,51,92.7 M39.4,72.7l-6.6-11.4c-0.1,0.9-0.1,1.8-0.1,2.7       c0,6.9,2.2,13.2,5.9,18.4L39.4,72.7" fill="#0B85B7"/></g></g></g><g><g><g><g><path d="M29.7,79c0.3,0.5,0.2,1.1-0.2,1.5L25,84.7c-0.3,0.3-1.1,0.9-1.7,1.4l0.1,0.1c0.6-0.2,1.7-0.5,2.3-0.6        l5.9-1c0.5-0.1,1.1,0.2,1.3,0.6l1.5,2.9c0.3,0.6,0.1,1.4-0.5,1.7l-9.7,5.1c-0.6,0.3-1.4,0.1-1.7-0.5L22,93.4        c-0.3-0.6-0.1-1.4,0.5-1.7l5.8-3c0.9-0.5,2.2-1.1,2.7-1.3l-0.1-0.2c-0.5,0.2-2.1,0.5-3.1,0.7l-6.9,1.3        c-0.5,0.1-1.1-0.2-1.3-0.6l-0.4-0.8c-0.3-0.5-0.2-1.1,0.2-1.5l5.5-5.5c0.6-0.6,1.5-1.3,1.8-1.6l-0.1-0.2        c-0.4,0.3-1.9,1.2-2.9,1.7l-5.4,2.8c-0.6,0.3-1.4,0.1-1.7-0.5l-0.4-0.8c-0.3-0.6-0.1-1.4,0.5-1.7l9.7-5.1        c0.6-0.3,1.4-0.1,1.7,0.5L29.7,79z M51.9,100.1c0.4,0.1,0.8,0.5,0.9,1l1.1,6.5c0.2,0.9,0.3,2,0.3,3.1l0.2,0        c0.1-0.6,0.3-1.6,0.7-2.8l1.6-5.1c0.2-0.7,0.9-1,1.6-0.8l0.9,0.3c0.7,0.2,1,0.9,0.8,1.6l-3.3,10.4c-0.2,0.7-0.9,1-1.6,0.8        l-2.5-0.8c-0.4-0.1-0.8-0.5-0.9-1l-1.1-6.8c-0.2-1.1-0.2-2.3-0.1-2.8l-0.1,0c-0.2,0.7-0.3,1.3-0.5,2l-1.8,5.8        c-0.2,0.7-0.9,1-1.6,0.8l-0.9-0.3c-0.7-0.2-1-0.9-0.8-1.6l3.3-10.4c0.2-0.7,0.9-1,1.6-0.8L51.9,100.1z M74.5,110.2        c-0.1,2.8-1.4,4.6-4.3,5.3c-3.3,0.8-6.9-0.3-8.1-5.3c-1.2-5,1.8-7.6,4.9-8.4c2.4-0.6,4.1,0.2,5.2,1.4c0.6,0.6,0.4,1.6-0.4,2        l-0.8,0.4c-0.5,0.2-1.1,0.1-1.5-0.4c-0.4-0.5-1-0.9-2-0.6c-1,0.2-2.3,1.2-1.5,4.6c0.5,2.1,1.4,4.2,3.5,3.7        c1-0.2,1.4-1,1.5-1.7c0.1-0.6,0.6-1,1.2-1L74.5,110.2" fill="#FFFFFF"/></g></g></g><g><g><g><path d="M75.3,100.7l1.1-0.6c0.6-0.3,1.4-0.1,1.7,0.5l1.2,2.2c0.3,0.6,1.1,0.8,1.7,0.5l1.7-0.9        c0.6-0.3,0.8-1.1,0.5-1.7l-1.2-2.2c-0.3-0.6-0.1-1.4,0.5-1.7l1.1-0.6c0.6-0.3,1.4-0.1,1.7,0.5l5.2,9.6        c0.3,0.6,0.1,1.4-0.5,1.7l-1.1,0.6c-0.6,0.3-1.4,0.1-1.7-0.5l-1.5-2.8c-0.3-0.6-1.1-0.8-1.7-0.5l-1.7,0.9        c-0.6,0.3-0.8,1.1-0.5,1.7l1.5,2.8c0.3,0.6,0.1,1.4-0.5,1.7l-1.1,0.6c-0.6,0.3-1.4,0.1-1.7-0.5l-5.2-9.6        C74.4,101.8,74.7,101,75.3,100.7z" fill="#FFFFFF"/></g></g></g><g><g><g><path d="M87.8,93.6l5-4.7c0.5-0.5,1.3-0.4,1.8,0.1l0.2,0.2c0.5,0.5,0.4,1.3-0.1,1.8l-2.4,2.2        c-0.5,0.5-0.5,1.2-0.1,1.8l0,0c0.5,0.5,1.2,0.5,1.8,0.1l2.1-2c0.5-0.5,1.3-0.4,1.8,0.1l0.2,0.2c0.5,0.5,0.4,1.3-0.1,1.8        l-2.1,2c-0.5,0.5-0.5,1.2-0.1,1.8l0.1,0.1c0.5,0.5,1.2,0.5,1.8,0.1l2.5-2.3c0.5-0.5,1.3-0.4,1.8,0.1l0.2,0.2        c0.5,0.5,0.4,1.3-0.1,1.8l-5.2,4.8c-0.5,0.5-1.3,0.4-1.8-0.1l-7.4-8C87.3,94.9,87.3,94.1,87.8,93.6z" fill="#FFFFFF"/></g></g></g><g><g><g><path d="M97.2,82.6c0.2-0.4,0.7-0.7,1.1-0.6l6.6,0.2c0.9,0,2,0.1,3.1,0.3l0.1-0.1c-0.6-0.2-1.5-0.6-2.6-1.2        l-4.7-2.5c-0.6-0.3-0.8-1.1-0.5-1.7l0.5-0.8c0.3-0.6,1.1-0.8,1.7-0.5l9.6,5.2c0.6,0.3,0.8,1.1,0.5,1.7l-1.3,2.3        c-0.2,0.4-0.7,0.7-1.1,0.6l-6.9-0.2c-1.1,0-2.3-0.2-2.7-0.4l-0.1,0.1c0.6,0.3,1.2,0.5,1.9,0.9l5.4,2.9        c0.6,0.3,0.8,1.1,0.5,1.7l-0.5,0.8c-0.3,0.6-1.1,0.8-1.7,0.5l-9.6-5.2c-0.6-0.3-0.8-1.1-0.5-1.7L97.2,82.6z M38.4,92.3        c0.5,0.4,0.6,1.2,0.2,1.7l-4.4,5.7c-0.9,1.1-1.1,2.3,0.1,3.3c1.3,1,2.4,0.4,3.3-0.7l4.4-5.7c0.4-0.5,1.2-0.6,1.7-0.2l0.8,0.7        c0.5,0.4,0.6,1.2,0.2,1.7l-4.4,5.7c-2.1,2.6-4.9,2.9-7.8,0.7c-2.4-1.9-3.7-4.6-1.3-7.7l4.4-5.7c0.4-0.5,1.2-0.6,1.7-0.2        L38.4,92.3z" fill="#FFFFFF"/></g></g></g><g><g><g><path d="M41.1,95.7L41.1,95.7c-0.7,0.5-1.6-0.2-1.3-1l0,0c0.2-0.5,0.9-0.7,1.3-0.4l0,0        C41.6,94.7,41.6,95.4,41.1,95.7z" fill="#FFFFFF"/></g></g></g></g></g></g><g><g><g><path d="M58.1,41.3c0.1-1,1.4-1.3,1.9-0.4l3.8,6.5c0.5,0.8,1.8,0.6,1.9-0.4l0.7-8.3c0.1-1,1.4-1.3,1.9-0.4     l3.8,6.5c0.5,0.8,1.8,0.6,1.9-0.4l0.8-9.8c-3.3-1.2-6.8-1.8-10.5-1.8c-12.3,0-23,7.1-28.1,17.4l3.1,5.3c0.5,0.8,1.8,0.6,1.9-0.4     l0.7-8.3c0.1-1,1.4-1.3,1.9-0.4l3.8,6.5c0.5,0.8,1.8,0.6,1.9-0.4l0.7-8.3c0.1-1,1.4-1.3,1.9-0.4l3.8,6.5c0.5,0.8,1.8,0.6,1.9-0.4     L58.1,41.3z" fill="#0B85B7"/></g></g></g><g><g><g><g><path d="M64.1,64.8l-5.4-9.2c-0.5-0.8-1.8-0.6-1.9,0.4l-1,11.5l-5.4-9.2c-0.5-0.8-1.8-0.6-1.9,0.4l-1,11.5      l-5.4-9.2c-0.5-0.8-1.8-0.6-1.9,0.4l-1,11.5l5.4,9.2c0.5,0.8,1.8,0.6,1.9-0.4l1-11.5l5.4,9.2c0.5,0.8,1.8,0.6,1.9-0.4l1-11.5      l5.4,9.2c0.5,0.8,1.8,0.6,1.9-0.4L64.1,64.8z" fill="#0B85B7"/></g></g></g><g><g><g><path d="M89.1,74.1c-0.5-0.8-1.8-0.6-1.9,0.4l-1,11.5l-5.4-9.2c-0.5-0.8-1.8-0.6-1.9,0.4l-1,11.5l-5.4-9.2      c-0.5-0.8-1.8-0.6-1.9,0.4l-1,11.5l-5.4-9.2c-0.5-0.8-1.8-0.5-1.9,0.4l-1,11.4l-5.4-9.2c-0.5-0.8-1.8-0.6-1.9,0.4l-0.7,8.5      c3.3,1.2,6.8,1.8,10.5,1.8c12,0,22.5-6.8,27.8-16.7L89.1,74.1z" fill="#0B85B7"/></g></g></g></g><g><g><g><path d="M80.6,59.2" fill="#0B85B7"/></g></g></g></svg>