<svg id="Capa_1" enable-background="new 0 0 512 512" height="512" viewBox="0 0 512 512" width="512" xmlns="http://www.w3.org/2000/svg"><g><g><path d="m474.261 206.174h-91.877c-4.268 0-7.726-3.459-7.726-7.726s3.459-7.726 7.726-7.726h91.877c4.268 0 7.726 3.459 7.726 7.726s-3.458 7.726-7.726 7.726z" fill="#665e66"/></g><g><path d="m474.261 321.279h-91.877c-4.268 0-7.726-3.459-7.726-7.726s3.459-7.726 7.726-7.726h91.877c4.268 0 7.726 3.459 7.726 7.726s-3.458 7.726-7.726 7.726z" fill="#665e66"/></g><g><path d="m448.391 263.726h-66.007c-4.268 0-7.726-3.459-7.726-7.726s3.459-7.726 7.726-7.726h66.007c4.268 0 7.726 3.459 7.726 7.726s-3.458 7.726-7.726 7.726z" fill="#665e66"/></g><g><path d="m326.98 197.452c-4.268 0-7.726-3.459-7.726-7.726v-59.202c0-2.162.905-4.224 2.497-5.688l44.347-40.773c3.141-2.887 8.027-2.682 10.918.459 2.887 3.141 2.682 8.029-.459 10.918l-41.85 38.477v55.81c-.001 4.266-3.46 7.725-7.727 7.725z" fill="#665e66"/></g><g fill="#e490d0"><circle cx="371.326" cy="89.751" r="16.407"/><circle cx="474.261" cy="198.447" r="16.407"/><circle cx="474.261" cy="313.552" r="16.407"/><circle cx="443.356" cy="256" r="16.407"/></g><g><path d="m371.325 429.975c-1.869 0-3.743-.674-5.227-2.038l-44.347-40.773c-1.592-1.464-2.497-3.526-2.497-5.688v-71.962c0-4.268 3.459-7.726 7.726-7.726s7.726 3.459 7.726 7.726v68.569l41.85 38.477c3.141 2.888 3.346 7.777.459 10.918-1.524 1.657-3.604 2.497-5.69 2.497z" fill="#665e66"/></g><circle cx="371.326" cy="422.249" fill="#e490d0" r="16.407"/><path d="m280.674 59.718c0-32.85-26.59-60.223-59.08-59.711-21.386.337-39.962 12.347-49.785 30.004-3.819 6.864-11.174 10.887-19.021 10.534-.644-.029-1.292-.044-1.944-.044-21.74 0-39.744 16.177-42.874 37.274-.557 3.756-3.74 6.558-7.537 6.558-17.471 0-31.635 14.163-31.635 31.635v19.472c0 6.697-3.228 13.056-8.797 16.775-11.667 7.792-19.363 21.167-19.363 36.361 0 4.439.658 8.721 1.881 12.754 2.348 7.745.173 16.182-5.969 21.452-9.31 7.988-15.219 19.905-15.219 33.218 0 10.847 3.925 20.763 10.417 28.384 5.01 5.882 6.269 14.204 3.137 21.266-2.406 5.427-3.745 11.441-3.745 17.774 0 17.858 10.634 33.197 25.848 39.914 7.264 3.207 11.811 10.56 11.811 18.501v16.62c0 16.131 13.077 29.207 29.207 29.207h2.427c3.797 0 6.979 2.802 7.537 6.558 3.131 21.097 21.134 37.274 42.874 37.274.651 0 1.299-.015 1.944-.044 7.847-.353 15.202 3.67 19.021 10.534 9.823 17.657 28.399 29.667 49.785 30.004 32.49.512 59.08-26.861 59.08-59.711z" fill="#e7a2cb"/><path d="m221.594.007c-4.371.069-8.623.633-12.708 1.626 25.633 6.31 44.764 30.223 44.764 58.086v392.563c0 27.862-19.131 51.775-44.764 58.086 4.086.993 8.337 1.557 12.708 1.626 32.49.512 59.08-26.861 59.08-59.711v-392.565c0-32.85-26.59-60.223-59.08-59.711z" fill="#e490d0"/><g><g><g><path d="m218.91 134.536c-1.339 0-2.683-.099-4.034-.294-14.085-2.042-22.695-14.077-23.631-15.444-2.411-3.52-1.513-8.329 2.008-10.74 3.508-2.404 8.3-1.519 10.717 1.975.133.187 5.662 7.879 13.195 8.927 3.996.556 8.045-.883 12.374-4.399 25.103-20.391 43.589.674 44.817 1.503 3.536 2.388 5.621 1.738 3.232 5.274-2.388 3.535 2.252 8.07-1.283 5.683-.819-.543-20.876-13.579-37.023-.466-6.532 5.306-13.368 7.981-20.372 7.981z" fill="#e490d0"/></g><g><path d="m251.206 406.783c-8.284 0-17.391-2.326-26.029-9.343-4.329-3.516-8.374-4.956-12.375-4.399-7.588 1.055-13.142 8.851-13.197 8.93-2.441 3.478-7.247 4.349-10.739 1.928-3.492-2.423-4.385-7.19-1.984-10.696.936-1.366 9.546-13.4 23.631-15.444 8.415-1.212 16.626 1.367 24.407 7.688 16.309 13.247 36.817-.329 37.022-.466 3.537-2.388-.654 1.613 1.735 5.149 2.388 3.536-1.567 4.927-5.104 7.315-.805.543-1.577 9.337-17.367 9.338z" fill="#e490d0"/></g></g><g><path d="m107.977 441.951c-.151 0-.303-.004-.456-.013-4.26-.247-7.512-3.901-7.265-8.162.771-13.259 10.25-39.576 40.606-44.278 4.231-.665 8.165 2.235 8.818 6.452.654 4.217-2.235 8.165-6.452 8.818-25.745 3.989-27.484 28.849-27.545 29.905-.238 4.107-3.644 7.278-7.706 7.278z" fill="#e490d0"/></g><g><path d="m51.895 218.317c-3.977 0-7.551-.462-10.37-1.137-4.15-.994-6.709-5.164-5.715-9.313.991-4.14 5.144-6.695 9.282-5.722 1.014.23 23.067 4.99 32.381-14.329 1.854-3.844 6.471-5.455 10.316-3.604 3.843 1.853 5.457 6.472 3.604 10.316-9.069 18.804-26.442 23.789-39.498 23.789z" fill="#e490d0"/></g><g fill="#e490d0"><path d="m124.942 134.43c8.94 1.349 15.211 4.634 18.641 9.763 5.216 7.801 2.774 18.02 2.761 18.075-1.077 4.129 1.397 8.349 5.526 9.426.654.171 1.31.252 1.955.252 3.431 0 6.565-2.304 7.471-5.779.131-.5 2.357-9.363-.064-19.44h9.735c4.268 0 7.726-3.459 7.726-7.726s-3.459-7.726-7.726-7.726h-17.994c-6.016-6.378-14.638-10.451-25.725-12.125-7.445-1.124-12.328-3.857-14.928-8.355-4.696-8.124-1.36-21.071.325-25.385 1.568-3.962-.367-8.447-4.328-10.023-3.963-1.578-8.457.357-10.035 4.323-.361.908-8.746 22.436.615 38.741 5.025 8.753 13.788 14.129 26.045 15.979z"/><path d="m229.894 266.494c-11.801-1.034-19.466-6.573-23.433-16.932-2.019-5.272-2.567-10.564-2.691-13.839 10.067-7.914 16.04-16.78 19.568-24.457 7.617-16.568 5.776-31.299 5.693-31.917-.558-4.212-4.407-7.156-8.628-6.627-4.216.535-7.206 4.396-6.696 8.616.221 1.83 4.733 44.971-54.964 57.527-17.573 3.697-30.371 12.799-38.036 27.052-4.677 8.696-6.971 18.586-7.742 28.644-15.952-.86-26.46 8.891-30.183 15.149-2.182 3.667-.978 8.408 2.689 10.591 1.239.738 2.6 1.088 3.944 1.088 2.634 0 5.202-1.348 6.647-3.777.238-.398 5.284-8.615 16.801-7.576 1.531 26.829 10.95 51.055 11.568 52.616 1.2 3.035 4.108 4.885 7.185 4.885.944 0 1.904-.174 2.836-.542 3.967-1.565 5.915-6.052 4.351-10.021-.148-.373-10.333-26.634-10.735-52.709.032-.422.027-.842-.009-1.256-.033-10.62 1.607-21.139 6.269-29.795 5.487-10.185 14.513-16.475 27.597-19.227 10.745-2.26 19.754-5.436 27.31-9.168.53 3.028 1.342 6.34 2.58 9.695 4.202 11.388 13.986 25.381 36.729 27.375.23.02.458.029.684.029 3.962 0 7.335-3.03 7.688-7.051.372-4.252-2.772-7.999-7.022-8.373z"/></g></g><path d="m380.248 339.218h-99.574v-166.436h99.574c9.574 0 17.336 7.761 17.336 17.336v131.765c0 9.573-7.762 17.335-17.336 17.335z" fill="#756e78"/><path d="m280.674 172.782h24.498v166.436h-24.498z" fill="#665e66"/><path d="m337.265 297.609h-56.591v-83.218h56.591c8.33 0 15.083 6.753 15.083 15.083v53.052c0 8.33-6.753 15.083-15.083 15.083z" fill="#ffe07d"/><path d="m280.674 214.391h24.498v83.218h-24.498z" fill="#ffd064"/></g></svg>